<svg width="50px" height="50px" xmlns="http://www.w3.org/2000/svg" xmlns:xlink="http://www.w3.org/1999/xlink" version="1.1" x="0px" y="0px" viewBox="0 0 73 73" enable-background="new 0 0 73 73" id="a1480816629398">
	<path fill="white" d="M36.5,0.5c-19.9,0-36,16.1-36,36s16.1,36,36,36s36-16.1,36-36S56.4,0.5,36.5,0.5z M51,20.4c0,1.1-0.9,2-2,2  c-1.1,0-2-0.9-2-2c0-1.1,0.9-2,2-2C50.1,18.4,51,19.3,51,20.4z M34.5,33c0-1.1,0.9-2,2-2s2,0.9,2,2c0,1.1-0.9,2-2,2  S34.5,34.1,34.5,33z M51.9,64.5V43.1l5.5-5.5c0.8,0.4,1.7,0.6,2.6,0.6c3.3,0,6-2.7,6-6c0-3.3-2.7-6-6-6c-3.3,0-6,2.7-6,6  c0,0.9,0.2,1.8,0.6,2.6l-6.1,6.1c-0.4,0.4-0.6,0.9-0.6,1.4v24.1c-3,1.1-6.1,1.8-9.4,2.1V38.7c2.3-0.8,4-3,4-5.6c0-3.3-2.7-6-6-6  c-3.3,0-6,2.7-6,6c0,2.6,1.7,4.8,4,5.6v29.8c-3.3-0.2-6.5-0.9-9.4-2.1V50c0-0.5-0.2-1-0.6-1.4L20.9,45c0.4-0.8,0.6-1.7,0.6-2.6  c0-3.3-2.7-6-6-6s-6,2.7-6,6c0,3.3,2.7,6,6,6c0.9,0,1.8-0.2,2.6-0.6l3,3v13.7c-9.9-5.5-16.6-16-16.6-28C4.5,20.8,15.8,7.8,30.7,5  v15.4H28c-0.8-2.3-3-4-5.6-4c-3.3,0-6,2.7-6,6s2.7,6,6,6c2.6,0,4.8-1.7,5.6-4h4.7c1.1,0,2-0.9,2-2V4.6c0.6,0,1.2-0.1,1.8-0.1  c3.7,0,7.2,0.6,10.5,1.8v8.5c-2.3,0.8-4,3-4,5.6c0,3.3,2.7,6,6,6s6-2.7,6-6c0-2.6-1.7-4.8-4-5.6V8c10.4,5.3,17.5,16.1,17.5,28.5  C68.5,48.5,61.8,59.1,51.9,64.5z M58.1,32.2c0-1.1,0.9-2,2-2c1.1,0,2,0.9,2,2c0,1.1-0.9,2-2,2C59,34.2,58.1,33.3,58.1,32.2z   M15.5,44.5c-1.1,0-2-0.9-2-2c0-1.1,0.9-2,2-2s2,0.9,2,2C17.5,43.6,16.6,44.5,15.5,44.5z M24.3,22.4c0,1.1-0.9,2-2,2  c-1.1,0-2-0.9-2-2c0-1.1,0.9-2,2-2C23.5,20.4,24.3,21.3,24.3,22.4z">
	</path>
</svg>
